# xmcd CD database file
#
# Track frame offsets:
#	150
#	14729
#	34855
#	53949
#	71583
#	89417
#	109851
#	127432
#	145317
#	163794
#	184451
#	199264
#	219635
#	237266
#	252447
#	269920
#	283509
#	302270
#
# Disc length: 4287 seconds
#
# Revision: 0
# Processed by: cddbd v1.5.2PL0 Copyright (c) Steve Scherf et al.
# Submitted via: CDex 1.77
#
DISCID=2710bd12
DTITLE=Trisha Yearwood - Where Are You Now (Japan)
DYEAR=2001
DGENRE=Country
TTITLE0=Where Are You Now
TTITLE1=One Love
TTITLE2=Sad Eyes
TTITLE3=Some Days
TTITLE4=I Did
TTITLE5=Try Me Again
TTITLE6=Too Bad You're No Good
TTITLE7=Real Live Woman
TTITLE8=I'm Still Alive
TTITLE9=Wild For You Baby
TTITLE10=Come Back When It Ain't Rainin'
TTITLE11=When A Love Song Sings The Blues
TTITLE12=There Goes My Baby
TTITLE13=Never Let You Go Again
TTITLE14=That Ain't The Way I Heard It
TTITLE15=Powerful Thing
TTITLE16=I Don't Want To Be The One
TTITLE17=How Do I Live
EXTD=YEAR: 2001
EXTT0=
EXTT1=
EXTT2=
EXTT3=
EXTT4=
EXTT5=
EXTT6=
EXTT7=
EXTT8=
EXTT9=
EXTT10=
EXTT11=
EXTT12=
EXTT13=
EXTT14=
EXTT15=
EXTT16=
EXTT17=
PLAYORDER=
